<svg xmlns="http://www.w3.org/2000/svg" width="176" height="40" viewBox="0 0 176 40" fill="none">
  <path d="M79.9328 9.04366C79.3057 7.10798 80.369 5.06326 82.3047 4.43621C84.2403 3.83643 86.3123 4.89968 86.9121 6.83535C86.3123 4.89968 84.2676 3.80916 82.3319 4.40895C80.3963 5.00873 79.3057 7.05346 79.9055 8.98913C79.9055 9.01639 79.9328 9.04366 79.9328 9.04366L83.3407 19.7308L79.9328 9.04366Z" fill="url(#paint0_linear_0_420)"/>
  <path d="M123.526 8.96187C123.608 8.7165 123.635 8.47114 123.663 8.22577C123.635 8.44387 123.581 8.68924 123.526 8.96187L117.638 29.9271C116.274 34.7254 113.766 32.3808 113.275 30.7177C112.785 29.0547 111.64 24.1201 111.64 24.1201L107.032 10.325C106.269 8.77103 105.069 10.4341 104.497 12.2334C103.87 14.1691 102.234 18.9947 102.234 18.9947L97.3811 33.4986C96.8631 34.998 95.6635 36.1976 94.1368 36.6883C91.465 37.5607 88.6297 36.1158 87.7573 33.444L87.1302 31.4538C87.0757 31.3448 87.0484 31.2357 86.9939 31.1267L87.7573 33.4986C88.6297 36.1703 91.465 37.6153 94.1368 36.7429C95.6635 36.2521 96.8631 35.0526 97.3811 33.5531L102.234 19.0492L107.059 33.5531C107.932 36.1976 110.794 37.6153 113.439 36.7429C115.02 36.2249 116.247 34.9435 116.711 33.335L123.526 8.96187Z" fill="url(#paint1_linear_0_420)"/>
  <path d="M91.6013 21.4483L92.6101 24.6108L98.0627 8.28028C98.4989 6.97166 99.5349 5.93566 100.871 5.47219C101.307 5.33588 101.716 5.25409 102.152 5.25409C101.716 5.25409 101.28 5.33588 100.843 5.47219C99.5349 5.9084 98.4989 6.94439 98.0627 8.25302L92.6101 24.5836L86.9121 6.83534L91.6013 21.4483Z" fill="url(#paint2_linear_0_420)"/>
  <path d="M106.351 8.25303L107.032 10.325C107.087 10.4341 107.141 10.5704 107.196 10.7067L106.351 8.25303C105.751 6.39915 104.006 5.19958 102.152 5.2541C104.006 5.22684 105.724 6.39915 106.351 8.25303Z" fill="url(#paint3_linear_0_420)"/>
  <path d="M98.0627 8.28029L92.6101 24.6108C92.6101 24.6108 90.8108 29.6 90.4018 30.854C90.0201 32.0264 88.4934 34.8344 87.1302 31.4538L87.7573 33.444C88.6297 36.1158 91.4651 37.5607 94.1368 36.6883C95.6636 36.1976 96.8631 34.998 97.3811 33.4986L102.234 18.9946C102.234 18.9946 103.87 14.1691 104.497 12.2334C105.069 10.4341 106.296 8.77102 107.032 10.325L106.351 8.25303C105.724 6.39914 104.006 5.22683 102.152 5.2541C101.716 5.2541 101.307 5.33589 100.871 5.4722C99.5349 5.93567 98.4989 6.97167 98.0627 8.28029Z" fill="url(#paint4_linear_0_420)"/>
  <path d="M98.0627 8.28029L92.6101 24.6108C92.6101 24.6108 90.8108 29.6 90.4018 30.854C90.0201 32.0264 88.4934 34.8344 87.1302 31.4538L87.7573 33.444C88.6297 36.1158 91.4651 37.5607 94.1368 36.6883C95.6636 36.1976 96.8631 34.998 97.3811 33.4986L102.234 18.9946C102.234 18.9946 103.87 14.1691 104.497 12.2334C105.069 10.4341 106.296 8.77102 107.032 10.325L106.351 8.25303C105.724 6.39914 104.006 5.22683 102.152 5.2541C101.716 5.2541 101.307 5.33589 100.871 5.4722C99.5349 5.93567 98.4989 6.97167 98.0627 8.28029Z" fill="url(#paint5_linear_0_420)"/>
  <path d="M91.6013 21.4483L92.61 24.6108L91.6013 21.4483Z" fill="url(#paint6_linear_0_420)"/>
  <path d="M91.6013 21.4483L92.61 24.6108L91.6013 21.4483Z" fill="url(#paint7_linear_0_420)"/>
  <path d="M120.009 4.29991C120.337 4.29991 120.664 4.35443 120.991 4.43622C122.681 4.89969 123.772 6.53547 123.663 8.22578C123.799 6.53547 122.708 4.89969 120.991 4.40896H120.964C120.636 4.32717 120.309 4.27264 119.982 4.27264C118.319 4.27264 116.874 5.36316 116.438 6.94442C116.874 5.36316 118.319 4.27264 120.009 4.29991Z" fill="url(#paint8_linear_0_420)"/>
  <path d="M113.275 30.7177C113.766 32.3808 116.274 34.7254 117.638 29.9271L123.526 8.93462C123.581 8.68925 123.635 8.44388 123.663 8.22578C123.772 6.53547 122.681 4.92696 120.991 4.43622C120.664 4.35443 120.337 4.29991 120.009 4.29991C118.319 4.27264 116.874 5.36316 116.438 6.94442L111.64 24.1201C111.64 24.1201 112.785 29.0547 113.275 30.7177Z" fill="url(#paint9_linear_0_420)"/>
  <path d="M113.275 30.7177C113.766 32.3808 116.274 34.7254 117.638 29.9271L123.526 8.93462C123.581 8.68925 123.635 8.44388 123.663 8.22578C123.772 6.53547 122.681 4.92696 120.991 4.43622C120.664 4.35443 120.337 4.29991 120.009 4.29991C118.319 4.27264 116.874 5.36316 116.438 6.94442L111.64 24.1201C111.64 24.1201 112.785 29.0547 113.275 30.7177Z" fill="url(#paint10_linear_0_420)"/>
  <path d="M86.8576 30.7177C86.9122 30.854 86.9394 30.9904 86.9939 31.1267L83.3407 19.7307L86.8576 30.7177Z" fill="url(#paint11_linear_0_420)"/>
  <path d="M86.4214 29.2455L90.8925 25.0198L91.6014 21.4483L86.9121 6.83536C86.3124 4.89968 84.2404 3.83643 82.3047 4.43621C80.369 5.06326 79.3058 7.10799 79.9328 9.04366L83.3407 19.7308L86.9939 31.1267C87.0485 31.2357 87.0757 31.3448 87.1302 31.4538L86.4214 29.2455Z" fill="url(#paint12_linear_0_420)"/>
  <path d="M86.4214 29.2455L90.8925 25.0198L91.6014 21.4483L86.9121 6.83536C86.3124 4.89968 84.2404 3.83643 82.3047 4.43621C80.369 5.06326 79.3058 7.10799 79.9328 9.04366L83.3407 19.7308L86.9939 31.1267C87.0485 31.2357 87.0757 31.3448 87.1302 31.4538L86.4214 29.2455Z" fill="url(#paint13_linear_0_420)"/>
  <path d="M90.4018 30.854C90.8107 29.5999 92.6101 24.6108 92.6101 24.6108L91.6014 21.4483L90.8925 25.0198L86.4214 29.2455L87.1302 31.4538C88.4934 34.8344 90.0201 32.0263 90.4018 30.854Z" fill="url(#paint14_linear_0_420)"/>
  <path d="M90.4018 30.854C90.8107 29.5999 92.6101 24.6108 92.6101 24.6108L91.6014 21.4483L90.8925 25.0198L86.4214 29.2455L87.1302 31.4538C88.4934 34.8344 90.0201 32.0263 90.4018 30.854Z" fill="url(#paint15_linear_0_420)"/>
  <path d="M90.4018 30.854C90.8107 29.5999 92.6101 24.6108 92.6101 24.6108L91.6014 21.4483L90.8925 25.0198L86.4214 29.2455L87.1302 31.4538C88.4934 34.8344 90.0201 32.0263 90.4018 30.854Z" fill="url(#paint16_linear_0_420)"/>
  <path d="M29.6326 33.0351C29.6326 35.0526 31.2683 36.6883 33.2858 36.6883C35.3033 36.6883 36.9391 35.0526 36.9391 33.0351V11.3065H29.6326V33.0351Z" fill="url(#paint17_linear_0_420)"/>
  <path d="M22.6532 11.3065H29.6326V10.5159H36.939V11.3065H43.9729C45.9904 11.3065 47.6261 9.6707 47.6261 7.65324C47.6261 5.63578 45.9904 4 43.9729 4H22.6532C20.6358 4 19 5.63578 19 7.65324C19 9.6707 20.6358 11.3065 22.6532 11.3065Z" fill="url(#paint18_linear_0_420)"/>
  <rect x="29.6326" y="10.5159" width="7.30648" height="0.790627" fill="url(#paint19_linear_0_420)"/>
  <rect x="29.6326" y="10.5159" width="7.30648" height="0.790627" fill="url(#paint20_linear_0_420)"/>
  <path d="M73.5532 34.6436C74.0985 36.034 75.4616 36.9337 76.9611 36.9337C77.4246 36.9337 77.8881 36.8519 78.3243 36.6611C80.2054 35.925 81.1324 33.7984 80.369 31.9173L77.6427 25.2106C77.6427 25.2106 77.6427 25.2106 77.6427 25.1833L70.1726 6.53545C70.1726 6.53545 70.1726 6.50819 70.1454 6.50819C70.0908 6.34461 70.009 6.2083 69.9 6.07198C69.8727 6.01746 69.8455 5.93567 69.7909 5.85388C69.7092 5.74483 69.6274 5.63577 69.5456 5.55398C69.4911 5.4722 69.4093 5.39041 69.3275 5.30862C69.2457 5.22683 69.1639 5.1723 69.0821 5.09051C69.0003 5.00873 68.8913 4.92694 68.8095 4.87241C68.6732 4.79062 68.5096 4.68157 68.346 4.62704C68.2915 4.59978 68.237 4.57252 68.1824 4.54525C68.0734 4.49073 67.9371 4.46347 67.828 4.4362C67.719 4.40894 67.6099 4.35441 67.5009 4.32715C67.3918 4.29989 67.3373 4.29989 67.2555 4.29989C67.0919 4.27262 66.9283 4.24536 66.792 4.24536H62.7026C61.2031 4.24536 59.8672 5.14504 59.2947 6.53545C59.3765 6.53545 59.4583 6.50819 59.5673 6.53545C60.3307 6.53545 62.7026 6.99892 64.7473 12.6969L57.7134 30.3088L60.6578 22.975L64.7746 12.6969L68.8913 22.975L71.8357 30.3088L73.5532 34.6436Z" fill="url(#paint21_linear_0_420)"/>
  <path d="M59.5673 6.53546C59.4583 6.5082 59.3765 6.53546 59.2947 6.53546L51.8519 25.2106L49.1801 31.9173C48.4168 33.7985 49.3437 35.925 51.2249 36.6883C51.6611 36.8792 52.1245 36.961 52.588 36.961C54.0875 36.961 55.4234 36.0613 55.9959 34.6436L57.7135 30.3088L64.7473 12.6969C62.7026 6.99893 60.3307 6.53546 59.5673 6.53546Z" fill="url(#paint22_linear_0_420)"/>
  <path d="M59.5673 6.53546C59.4583 6.5082 59.3765 6.53546 59.2947 6.53546L51.8519 25.2106L49.1801 31.9173C48.4168 33.7985 49.3437 35.925 51.2249 36.6883C51.6611 36.8792 52.1245 36.961 52.588 36.961C54.0875 36.961 55.4234 36.0613 55.9959 34.6436L57.7135 30.3088L64.7473 12.6969C62.7026 6.99893 60.3307 6.53546 59.5673 6.53546Z" fill="url(#paint23_linear_0_420)"/>
  <path d="M141.82 12.6969L145.936 22.975L148.881 30.3088L150.626 34.6436C151.171 36.034 152.534 36.961 154.034 36.961C154.497 36.961 154.961 36.8792 155.397 36.6883C157.278 35.925 158.178 33.7984 157.441 31.9173L154.661 25.2106C154.661 25.2106 154.661 25.2106 154.661 25.1833L147.191 6.53545V6.50819C147.136 6.34461 147.054 6.2083 146.972 6.07198C146.945 6.01746 146.891 5.93567 146.863 5.85388C146.782 5.74483 146.7 5.63577 146.618 5.55398C146.564 5.4722 146.482 5.39041 146.4 5.30862C146.318 5.22683 146.236 5.1723 146.127 5.09051C146.046 5.00873 145.936 4.92694 145.855 4.87241C145.718 4.79062 145.555 4.68157 145.391 4.62704C145.337 4.59978 145.282 4.57252 145.228 4.54525C145.119 4.49073 144.982 4.46347 144.873 4.4362C144.764 4.40894 144.655 4.35441 144.546 4.32715C144.437 4.29989 144.382 4.29989 144.301 4.29989C144.137 4.27262 143.974 4.24536 143.81 4.24536H139.748C138.248 4.24536 136.912 5.14504 136.34 6.53545C136.422 6.53545 136.503 6.50819 136.613 6.53545C137.376 6.53545 139.748 7.02619 141.793 12.6969" fill="url(#paint24_linear_0_420)"/>
  <path d="M136.613 6.53546C136.503 6.5082 136.422 6.53546 136.34 6.53546L128.87 25.2106L126.198 31.9173C125.435 33.7985 126.362 35.925 128.243 36.6883C128.679 36.8792 129.142 36.961 129.606 36.961C131.105 36.961 132.441 36.0613 133.014 34.6436L134.759 30.3088L141.793 12.6969C139.748 7.0262 137.376 6.53546 136.613 6.53546Z" fill="url(#paint25_linear_0_420)"/>
  <path d="M136.613 6.53546C136.503 6.5082 136.422 6.53546 136.34 6.53546L128.87 25.2106L126.198 31.9173C125.435 33.7985 126.362 35.925 128.243 36.6883C128.679 36.8792 129.142 36.961 129.606 36.961C131.105 36.961 132.441 36.0613 133.014 34.6436L134.759 30.3088L141.793 12.6969C139.748 7.0262 137.376 6.53546 136.613 6.53546Z" fill="url(#paint26_linear_0_420)"/>
  <defs>
    <linearGradient id="paint0_linear_0_420" x1="103.777" y1="31.7751" x2="82.9423" y2="20.3342" gradientUnits="userSpaceOnUse">
      <stop stop-color="#563AFF"/>
      <stop offset="1" stop-color="#49D1FF"/>
    </linearGradient>
    <linearGradient id="paint1_linear_0_420" x1="130.773" y1="33.5512" x2="123.597" y2="3.7075" gradientUnits="userSpaceOnUse">
      <stop stop-color="#563AFF"/>
      <stop offset="1" stop-color="#49D1FF"/>
    </linearGradient>
    <linearGradient id="paint2_linear_0_420" x1="118.531" y1="32.8524" x2="102.314" y2="7.10944" gradientUnits="userSpaceOnUse">
      <stop stop-color="#563AFF"/>
      <stop offset="1" stop-color="#49D1FF"/>
    </linearGradient>
    <linearGradient id="paint3_linear_0_420" x1="90.117" y1="-2.63733" x2="76.0803" y2="31.181" gradientUnits="userSpaceOnUse">
      <stop stop-color="#563AFF"/>
      <stop offset="1" stop-color="#49D1FF"/>
    </linearGradient>
    <linearGradient id="paint4_linear_0_420" x1="113.938" y1="31.9333" x2="93.931" y2="11.7239" gradientUnits="userSpaceOnUse">
      <stop stop-color="#563AFF"/>
      <stop offset="1" stop-color="#49D1FF"/>
    </linearGradient>
    <linearGradient id="paint5_linear_0_420" x1="92.5782" y1="-6.71501" x2="69.9104" y2="18.4779" gradientUnits="userSpaceOnUse">
      <stop stop-color="#563AFF"/>
      <stop offset="1" stop-color="#49D1FF"/>
    </linearGradient>
    <linearGradient id="paint6_linear_0_420" x1="104.445" y1="25.205" x2="86.8507" y2="20.621" gradientUnits="userSpaceOnUse">
      <stop stop-color="#563AFF"/>
      <stop offset="1" stop-color="#49D1FF"/>
    </linearGradient>
    <linearGradient id="paint7_linear_0_420" x1="94.1552" y1="-17.5111" x2="73.6696" y2="-11.6386" gradientUnits="userSpaceOnUse">
      <stop stop-color="#563AFF"/>
      <stop offset="1" stop-color="#49D1FF"/>
    </linearGradient>
    <linearGradient id="paint8_linear_0_420" x1="98.405" y1="-2.16086" x2="95.362" y2="25.1097" gradientUnits="userSpaceOnUse">
      <stop stop-color="#563AFF"/>
      <stop offset="1" stop-color="#49D1FF"/>
    </linearGradient>
    <linearGradient id="paint9_linear_0_420" x1="130.177" y1="20.0666" x2="109.944" y2="10.8209" gradientUnits="userSpaceOnUse">
      <stop stop-color="#563AFF"/>
      <stop offset="1" stop-color="#49D1FF"/>
    </linearGradient>
    <linearGradient id="paint10_linear_0_420" x1="118.011" y1="-10.8296" x2="99.6371" y2="-2.06035" gradientUnits="userSpaceOnUse">
      <stop stop-color="#563AFF"/>
      <stop offset="1" stop-color="#49D1FF"/>
    </linearGradient>
    <linearGradient id="paint11_linear_0_420" x1="92.7703" y1="22.9929" x2="74.7059" y2="15.5082" gradientUnits="userSpaceOnUse">
      <stop stop-color="#563AFF"/>
      <stop offset="1" stop-color="#49D1FF"/>
    </linearGradient>
    <linearGradient id="paint12_linear_0_420" x1="103.046" y1="31.1473" x2="82.581" y2="21.191" gradientUnits="userSpaceOnUse">
      <stop stop-color="#563AFF"/>
      <stop offset="1" stop-color="#49D1FF"/>
    </linearGradient>
    <linearGradient id="paint13_linear_0_420" x1="97.5456" y1="25.535" x2="77.1248" y2="9.89447" gradientUnits="userSpaceOnUse">
      <stop stop-color="#563AFF"/>
      <stop offset="1" stop-color="#49D1FF"/>
    </linearGradient>
    <linearGradient id="paint14_linear_0_420" x1="103.995" y1="33.6745" x2="82.8956" y2="18.3384" gradientUnits="userSpaceOnUse">
      <stop stop-color="#563AFF"/>
      <stop offset="1" stop-color="#49D1FF"/>
    </linearGradient>
    <linearGradient id="paint15_linear_0_420" x1="89.3972" y1="-10.1744" x2="65.063" y2="9.28678" gradientUnits="userSpaceOnUse">
      <stop stop-color="#563AFF"/>
      <stop offset="1" stop-color="#49D1FF"/>
    </linearGradient>
    <linearGradient id="paint16_linear_0_420" x1="99.9055" y1="26.9874" x2="80.6406" y2="4.94173" gradientUnits="userSpaceOnUse">
      <stop stop-color="#563AFF"/>
      <stop offset="1" stop-color="#49D1FF"/>
    </linearGradient>
    <linearGradient id="paint17_linear_0_420" x1="30.4883" y1="8.61419" x2="30.4883" y2="28.0636" gradientUnits="userSpaceOnUse">
      <stop stop-color="#563AFF"/>
      <stop offset="1" stop-color="#49D1FF"/>
    </linearGradient>
    <linearGradient id="paint18_linear_0_420" x1="20.0962" y1="11.2937" x2="48.7215" y2="11.2937" gradientUnits="userSpaceOnUse">
      <stop stop-color="#563AFF"/>
      <stop offset="1" stop-color="#49D1FF"/>
    </linearGradient>
    <linearGradient id="paint19_linear_0_420" x1="-56.582" y1="8.6142" x2="-56.582" y2="28.0636" gradientUnits="userSpaceOnUse">
      <stop stop-color="#563AFF"/>
      <stop offset="1" stop-color="#49D1FF"/>
    </linearGradient>
    <linearGradient id="paint20_linear_0_420" x1="20.0962" y1="12.4474" x2="48.7473" y2="12.4474" gradientUnits="userSpaceOnUse">
      <stop stop-color="#563AFF"/>
      <stop offset="1" stop-color="#49D1FF"/>
    </linearGradient>
    <linearGradient id="paint21_linear_0_420" x1="84.1516" y1="33.603" x2="65.9128" y2="3.81966" gradientUnits="userSpaceOnUse">
      <stop stop-color="#9100FF"/>
      <stop offset="1" stop-color="#FF69AD"/>
    </linearGradient>
    <linearGradient id="paint22_linear_0_420" x1="71.9908" y1="33.7395" x2="49.0407" y2="13.114" gradientUnits="userSpaceOnUse">
      <stop stop-color="#9100FF"/>
      <stop offset="1" stop-color="#FF69AD"/>
    </linearGradient>
    <linearGradient id="paint23_linear_0_420" x1="56.5424" y1="-5.78367" x2="33.6892" y2="6.8308" gradientUnits="userSpaceOnUse">
      <stop stop-color="#9100FF"/>
      <stop offset="1" stop-color="#FF69AD"/>
    </linearGradient>
    <linearGradient id="paint24_linear_0_420" x1="164.436" y1="32.0652" x2="144.673" y2="4.09636" gradientUnits="userSpaceOnUse">
      <stop stop-color="#9100FF"/>
      <stop offset="1" stop-color="#FF69AD"/>
    </linearGradient>
    <linearGradient id="paint25_linear_0_420" x1="149.11" y1="33.9796" x2="126.172" y2="13.2935" gradientUnits="userSpaceOnUse">
      <stop stop-color="#9100FF"/>
      <stop offset="1" stop-color="#FF69AD"/>
    </linearGradient>
    <linearGradient id="paint26_linear_0_420" x1="133.565" y1="-5.77751" x2="110.707" y2="6.88312" gradientUnits="userSpaceOnUse">
      <stop stop-color="#9100FF"/>
      <stop offset="1" stop-color="#FF69AD"/>
    </linearGradient>
  </defs>
</svg>